<svg xmlns="http://www.w3.org/2000/svg" xmlns:xlink="http://www.w3.org/1999/xlink" width="100%" height="100%" viewBox="-0.07560058683156967 -0.000012530395906651393 1050.1512451171875 460.0000305175781" preserveAspectRatio="xMinYMin meet" ><rect id="svgEditorBackground" x="0" y="0" width="1050" height="460" style="fill:none; stroke: none;cursor:crosshair;"/><path d="M2.787987,-0.608151v-1.5a2,2,0,0,0,-2,-2h-4a2,2,0,0,0,-2,2v3a2,2,0,0,0,2,2h4a2,2,0,0,0,2,-2Z" style="fill:white; stroke:black; vector-effect:non-scaling-stroke;stroke-width:1px;" id="e2_shape" transform="matrix(33.6512, 0.24956, -0.104025, 13.8362, 183.934, 98.7602)"/><rect x="16.675982" y="143.219574" style="fill:none;stroke:black;stroke-width:1px;" id="e5_rectangle" width="257.02" height="90.0987"/><text style="fill:black;font-family:Arial;font-size:14px;" x="152.547" y="201.148" id="newmsg#3#1" transform="matrix(1, 0, 0, 1, 0.0528221, -0.960879)">R</text><text style="fill:black;font-family:Arial;font-size:13px;" x="105.694" y="63.4895" id="e10_texte">creator</text><text style="fill:black;font-family:Arial;font-size:13px;" x="201.733" y="80.3135" id="e1_texte">receiver</text><text style="fill:black;font-family:Arial;font-size:13px;" x="46.3463" y="168.403" id="e3_texte" xml:space="preserve">Identifier</text><text style="fill:black;font-family:Arial;font-size:13px;" x="222.824" y="167.935" id="e4_texte">key</text><g id="e1_group"/><text style="fill:black;font-family:Arial;font-size:20px;" x="174.642" y="313.221" id="e12_texte"/><g id="e16_group"/><rect x="289.473572" y="19.069223" style="fill:white;stroke:black;stroke-width:1px;" id="__nwCM-all" width="746.296021" height="137.807999"/><text style="fill:black;font-family:Arial;font-size:13px;" x="316.35" y="18.7638" id="e11_texte"/><text style="fill:blue;font-family:Arial;font-size:12px;" x="997.11" y="32.2812" id="e13_texte" transform="matrix(1, 0, 0, 1, 1.25012, 0)">nwCM</text><text style="fill:black;font-family:Arial;font-size:14px;" x="293.887" y="50.999" id="nwCM-all" transform="matrix(1, 0, 0, 1, -0.000488281, 0)">empty</text><rect x="99.14459991455078" y="236.5006656410334" style="fill:white;stroke:black;stroke-width:1px;" id="e3_rectangle" width="101.448000" height="33.788300"/><text style="fill:blue;font-family:Arial;font-size:12px;" x="166.8" y="246.513" id="e9_texte">urand</text><text style="fill:black;font-family:Arial;font-size:14px;" x="116.725" y="257.77" id="urand" xml:space="preserve" transform="matrix(1, 0, 0, 1, 0, -0.644212)">random</text><circle id="newmsg#0_p" cx="38.173798" cy="67.463150" style="fill:lightyellow;stroke:black;stroke-width:1px;" r="16.000000" class="groups" transform="matrix(1, 0, 0, 1, 0, 0)"/><circle id="newmsg#0_q" cx="72.874702" cy="67.463135" style="fill:pink;stroke:black;stroke-width:1px;" r="16.000000" class="groups" transform="matrix(1, 0, 0, 1, 1.98705, 0)"/><circle id="newmsg#1_p" cx="40.160839" cy="111.815620" style="fill:lightyellow;stroke:black;stroke-width:1px;" r="16.000000" class="groups" transform="matrix(1, 0, 0, 1, -1.98704, 0)"/><circle id="newmsg#2_p" cx="209.020172" cy="108.835045" style="fill:lightyellow;stroke:black;stroke-width:1px;" r="16.000000" class="groups" transform="matrix(1, 0, 0, 1, 0, 0)"/><circle id="newmsg#2_q" cx="247.746567" cy="108.835045" style="fill:pink;stroke:black;stroke-width:1px;" r="16.000000" class="groups" transform="matrix(1, 0, 0, 1, 0, 0)"/><text style="fill:black;font-family:Arial;font-size:13px;" x="106.687" y="114.797" id="e2_texte">sender</text><circle id="newmsg#1_q" cx="74.861748" cy="111.815620" style="fill:pink;stroke:black;stroke-width:1px;" r="16.000000" class="groups" transform="matrix(1, 0, 0, 1, 0, 0)"/><text style="fill:black;font-family:Arial;font-size:13px;" x="101.459" y="198.017" id="newmsg#3#3_dP" class="groups GPAH5AQCJ"><tspan x="101.459" textLength="31.412567166065287">none</tspan></text><rect x="29.511703491210938" y="180.36038782576347" style="fill:lightyellow;stroke:black;stroke-width:1px;" id="newmsg#3#2_p" width="30.000000" height="30.000000" class="groups" transform="matrix(1, 0, 0, 1, -4.83754, -1.37148)"/><rect x="60.269996643066406" y="181.35397913435722" style="fill:pink;stroke:black;stroke-width:1px;" id="newmsg#3#2_q" width="30.000000" height="30.000000" class="groups" transform="matrix(1, 0, 0, 1, 3.09214, -2.36507)"/><rect x="31.801155" y="16.8825" style="fill:lightgray;stroke:black;stroke-width:1px;" width="15.006770" height="14.998565" transform="matrix(1, 0, 0, 1, -0.0368624, 2.18247)" id="e1_empCM"/><rect x="135.576" y="16.2538" style="fill:lightgray;stroke:black;stroke-width:1px;" id="e2_empRM" width="15.006800" height="14.998600" transform="matrix(1, 0, 0, 1, 4.83831, 2.81112)"/><rect x="289.473541" y="156.588959" style="fill:white;stroke:black;stroke-width:1px;" id="__nwRM-all" width="746.296021" height="137.807999"/><text style="fill:blue;font-family:Arial;font-size:12px;" x="998.36" y="168.551" id="e8_texte" transform="matrix(1, 0, 0, 1, 0, 0)">nwRM</text><text style="fill:black;font-family:Arial;font-size:14px;" x="293.887" y="183.518" id="nwRM-all" transform="matrix(1, 0, 0, 1, 0, 0)">empty</text><rect x="28.664986" y="15.6275" style="fill:#cfeff3;stroke:none;stroke-width:1px;" id="m1_empM1" width="19.390772" height="18.756290" class="groups" transform="matrix(1, 0, 0, 1, 0.907308, 1.55856)"/><rect x="137.012" y="11.2436" style="fill:#cfeff3;stroke:none;stroke-width:1px;" id="m2_empM2" width="19.390772" height="18.756290" class="groups" transform="matrix(1, 0, 0, 1, 1.21022, 5.94253)"/><text style="fill:black;font-family:Arial;font-size:12px;" x="31.1802" y="13.7518" id="e15_texte" transform="matrix(1, 0, 0, 1, -0.945052, -1.87508)">cm</text><text style="fill:black;font-family:Arial;font-size:12px;" x="139.946" y="13.7518" id="e16_texte" transform="matrix(1, 0, 0, 1, -1.06082, -1.8751)">rm</text><text style="fill:black;font-family:Arial;font-size:13px;" x="140.642" y="170.775" id="e5_texte">Rand</text><text style="fill:black;font-family:Arial;font-size:13px;" x="223.318" y="198.34" id="newmsg#3#0">key</text></svg>