<svg xmlns="http://www.w3.org/2000/svg" xmlns:xlink="http://www.w3.org/1999/xlink" width="100%" height="100%" viewBox="-0.07560060173273087 -0.000012530395906651393 1050.1512451171875 460.0000305175781" preserveAspectRatio="xMinYMin meet" ><rect id="svgEditorBackground" x="0" y="0" width="1050" height="460" style="fill:none; stroke: none;cursor:crosshair;"/><path d="M2.8098155991116727,6.453214519854628v-1.5a2,2,0,0,0,-2,-2h-4a2,2,0,0,0,-2,2v3a2,2,0,0,0,2,2h4a2,2,0,0,0,2,-2Z" style="fill:white; stroke:black; vector-effect:non-scaling-stroke;stroke-width:1px;" id="e2_shape" transform="matrix(33.6512, 0.24956, -0.104025, 13.8362, 183.934, 98.7602)"/><rect x="16.675981521606445" y="240.9272670982244" style="fill:none;stroke:black;stroke-width:1px;" id="e5_rectangle" width="257.02" height="90.0987"/><text style="fill:black;font-family:Arial;font-size:14px;" x="140.038" y="296.354" id="newmsg#3#1" transform="matrix(1, 0, 0, 1, 0.0528221, -0.960879)">R</text><text style="fill:black;font-family:Arial;font-size:13px;" x="105.694" y="161.197" id="e10_texte">creator</text><text style="fill:black;font-family:Arial;font-size:13px;" x="201.733" y="178.021" id="e1_texte">receiver</text><text style="fill:black;font-family:Arial;font-size:13px;" x="43.8652" y="266.111" id="e3_texte" xml:space="preserve">Identifier</text><text style="fill:black;font-family:Arial;font-size:13px;" x="202.812" y="265.643" id="e4_texte">Key</text><g id="e1_group"><text style="fill:white;font-family:Arial;font-size:13px;" x="45.4393" y="296.052" id="newmsg#3#2_dP">none</text><text style="fill:white;font-family:Arial;font-size:13px;" x="207.033" y="297.305" id="newmsg#3#0_dP">none</text></g><text style="fill:black;font-family:Arial;font-size:20px;" x="174.642" y="313.221" id="e12_texte"/><g id="e16_group"/><rect x="489.90081787109375" y="116.77719690779472" style="fill:white;stroke:black;stroke-width:1px;" id="__nwCM-all" width="546.296" height="137.807999"/><text style="fill:black;font-family:Arial;font-size:13px;" x="316.35" y="18.7638" id="e11_texte"/><text style="fill:blue;font-family:Arial;font-size:12px;" x="997.11" y="129.989" id="e13_texte" transform="matrix(1, 0, 0, 1, 1.25012, 0)">nwCM</text><text style="fill:black;font-family:Arial;font-size:14px;" x="499.325" y="148.707" id="nwCM-all" transform="matrix(1, 0, 0, 1, -0.000488281, 0)">emp</text><rect x="99.14459991455078" y="334.2088222740056" style="fill:white;stroke:black;stroke-width:1px;" id="e3_rectangle" width="90.448" height="30.7883"/><text style="fill:blue;font-family:Arial;font-size:12px;" x="101.675" y="344.221" id="e9_texte">urand</text><text style="fill:black;font-family:Arial;font-size:14px;" x="136.768" y="355.478" id="urand" xml:space="preserve" transform="matrix(1, 0, 0, 1, 0, -0.644212)">random</text><circle id="newmsg#0_p" cx="38.173797607421875" cy="165.17102625349784" style="fill:lightyellow;stroke:black;stroke-width:1px;" r="16.000000" class="groups" transform="matrix(1, 0, 0, 1, 0, 0)"/><circle id="newmsg#0_q" cx="72.87470245361328" cy="165.17101099470878" style="fill:pink;stroke:black;stroke-width:1px;" r="16.000000" class="groups" transform="matrix(1, 0, 0, 1, 1.98705, 0)"/><circle id="newmsg#1_p" cx="40.16083908081055" cy="209.52336695174003" style="fill:lightyellow;stroke:black;stroke-width:1px;" r="16.000000" class="groups" transform="matrix(1, 0, 0, 1, -1.98704, 0)"/><circle id="newmsg#2_p" cx="209.02017211914062" cy="206.5427913902166" style="fill:lightyellow;stroke:black;stroke-width:1px;" r="16.000000" class="groups" transform="matrix(1, 0, 0, 1, 0, 0)"/><circle id="newmsg#2_q" cx="247.74656677246094" cy="206.5427913902166" style="fill:pink;stroke:black;stroke-width:1px;" r="16.000000" class="groups" transform="matrix(1, 0, 0, 1, 0, 0)"/><text style="fill:black;font-family:Arial;font-size:13px;" x="106.687" y="212.505" id="e2_texte">sender</text><circle id="newmsg#1_q" cx="74.86174774169922" cy="209.52336695174003" style="fill:pink;stroke:black;stroke-width:1px;" r="16.000000" class="groups" transform="matrix(1, 0, 0, 1, 0, 0)"/><rect x="34.525823616779086" y="278.0682067871094" style="fill:lightyellow;stroke:black;stroke-width:1px;" id="newmsg#3#2_p" width="30.000000" height="30.000000" class="groups" transform="matrix(1, 0, 0, 1, -4.83754, -1.37148)"/><rect x="60.280374550616976" y="279.0617980957031" style="fill:pink;stroke:black;stroke-width:1px;" id="newmsg#3#2_q" width="30.000000" height="30.000000" class="groups" transform="matrix(1, 0, 0, 1, 3.09214, -2.36507)"/><rect x="31.80150029679513" y="114.59076690673828" style="fill:lightgray;stroke:black;stroke-width:1px;" width="15.006800" height="14.998600" transform="matrix(1, 0, 0, 1, -0.0368624, 2.18247)" id="cm_empCM"/><rect x="135.57699584960938" y="113.96217157820487" style="fill:lightgray;stroke:black;stroke-width:1px;" id="rm_empRM" width="15.006800" height="14.998600" transform="matrix(1, 0, 0, 1, 4.83831, 2.81112)"/><rect x="489.9007873535156" y="254.2966518638494" style="fill:white;stroke:black;stroke-width:1px;" id="__nwRM-all" width="546.296" height="137.807999"/><text style="fill:blue;font-family:Arial;font-size:12px;" x="998.36" y="266.259" id="e8_texte" transform="matrix(1, 0, 0, 1, 0, 0)">nwRM</text><text style="fill:black;font-family:Arial;font-size:14px;" x="496.82" y="281.226" id="nwRM-all" transform="matrix(1, 0, 0, 1, 0, 0)">emp</text><rect x="28.664899826049805" y="113.3354702232244" style="fill:#cfeff3;stroke:none;stroke-width:1px;" id="cm_empCM" width="19.390800" height="18.756300" class="groups" transform="matrix(1, 0, 0, 1, 0.907308, 1.55856)"/><rect x="137.01198766251778" y="108.95156860351562" style="fill:#cfeff3;stroke:none;stroke-width:1px;" id="rm_empRM" width="19.390800" height="18.756300" class="groups" transform="matrix(1, 0, 0, 1, 1.21022, 5.94253)"/><text style="fill:black;font-family:Arial;font-size:12px;" x="31.1801" y="111.46" id="e15_texte" transform="matrix(1, 0, 0, 1, -0.945052, -1.87508)">cm</text><text style="fill:black;font-family:Arial;font-size:12px;" x="139.946" y="111.46" id="e16_texte" transform="matrix(1, 0, 0, 1, -1.06082, -1.8751)">rm</text><text style="fill:black;font-family:Arial;font-size:13px;" x="130.634" y="265.981" id="e5_texte">Rand</text><rect x="200.92105677107597" y="278.06793212890625" style="fill:lightyellow;stroke:black;stroke-width:1px;" id="newmsg#3#0_p" width="30.000000" height="30.000000" class="groups" transform="matrix(1, 0, 0, 1, -4.83754, -1.37148)"/><rect x="226.67529871443534" y="279.06170654296875" style="fill:pink;stroke:black;stroke-width:1px;" id="newmsg#3#0_q" width="30.000000" height="30.000000" class="groups" transform="matrix(1, 0, 0, 1, 3.09214, -2.36507)"/><rect x="299.72698974609375" y="116.91016962507987" style="fill:white;stroke:black;stroke-width:1px;" id="__cipher-all" width="187.898" height="275"/><text style="fill:blue;font-family:Arial;font-size:14px;" x="443.789" y="135.701" id="e6_texte">cipher</text><text style="fill:black;font-family:Arial;font-size:14px;" x="309.75" y="159.506" id="cipher-all">emp</text></svg>